P2
32 16
255
0 0 0 0 0 0 0 0 0 0 0 0 0 0 0 0 0 0 0 0 0 0 0 0 0 0 0 0 0 0 0 0 
0 0 0 0 0 0 0 0 0 0 0 0 0 0 0 0 0 0 0 0 0 0 0 0 0 0 0 0 0 0 0 0 
0 0 50 0 0 0 0 0 0 0 0 100 0 0 0 100 0 0 0 100 0 0 0 0 150 150 150 150 0 0 0 0 
0 0 50 0 0 0 0 0 0 0 0 100 0 0 0 100 0 0 0 100 0 0 0 150 0 0 0 0 150 0 0 0 
0 0 50 0 0 0 0 0 0 0 0 100 0 0 0 100 0 0 0 100 0 0 150 0 0 0 0 0 0 150 0 0 
0 0 50 0 0 0 0 0 0 0 0 100 0 0 0 100 0 0 0 100 0 0 150 0 0 0 0 0 0 0 0 0 
0 0 50 0 0 0 0 0 0 0 0 0 100 0 100 0 100 0 100 0 0 0 0 150 0 0 0 0 0 0 0 0 
0 0 50 0 0 0 0 0 0 0 0 0 100 0 100 0 100 0 100 0 0 0 0 0 150 150 0 0 0 0 0 0 
0 0 50 0 0 0 0 0 0 0 0 0 100 0 100 0 100 0 100 0 0 0 0 0 0 0 150 150 0 0 0 0 
0 0 50 0 0 0 0 0 0 0 0 0 100 0 100 0 100 0 100 0 0 0 0 0 0 0 0 0 150 0 0 0 
0 0 50 0 0 0 0 0 0 0 0 0 0 100 0 0 0 100 0 0 0 0 0 0 0 0 0 0 0 150 0 0
0 0 50 0 0 0 0 0 0 0 0 0 0 100 0 0 0 100 0 0 0 0 150 0 0 0 0 0 0 150 0 0 
0 0 50 0 0 0 0 0 0 0 0 0 0 100 0 0 0 100 0 0 0 0 0 150 0 0 0 0 150 0 0 0
0 0 50 50 50 50 50 50 50 50 0 0 0 100 0 0 0 100 0 0 0 0 0 0 150 150 150 150 0 0 0 0
0 0 0 0 0 0 0 0 0 0 0 0 0 0 0 0 0 0 0 0 0 0 0 0 0 0 0 0 0 0 0 0 
0 0 0 0 0 0 0 0 0 0 0 0 0 0 0 0 0 0 0 0 0 0 0 0 0 0 0 0 0 0 0 0