P3
32 16
255
0 0 0 0 0 0 0 0 0 0 0 0 0 0 0 0 0 0 0 0 0 0 0 0 0 0 0 0 0 0 0 0 0 0 0 0 0 0 0 0 0 0 0 0 0 0 0 0 0 0 0 0 0 0 0 0 0 0 0 0 0 0 0 0 0 0 0 0 0 0 0 0 0 0 0 0 0 0 0 0 0 0 0 0 0 0 0 0 0 0 0 0 0 0 0 0 
0 0 0 0 0 0 0 0 0 0 0 0 0 0 0 0 0 0 0 0 0 0 0 0 0 0 0 0 0 0 0 0 0 0 0 0 0 0 0 0 0 0 0 0 0 0 0 0 0 0 0 0 0 0 0 0 0 0 0 0 0 0 0 0 0 0 0 0 0 0 0 0 0 0 0 0 0 0 0 0 0 0 0 0 0 0 0 0 0 0 0 0 0 0 0 0 
0 0 0 0 0 0 255 100 100 0 0 0 0 0 0 0 0 0 0 0 0 0 0 0 0 0 0 0 0 0 0 0 0 255 150 0 0 0 0 0 0 0 0 0 0 255 160 0 0 0 0 0 0 0 0 0 0 255 170 0 0 0 0 0 0 0 0 0 0 0 0 0 255 255 0 255 255 10 255 255 20 255 255 30 0 0 0 0 0 0 0 0 0 0 0 0 
0 0 0 0 0 0 255 100 100 0 0 0 0 0 0 0 0 0 0 0 0 0 0 0 0 0 0 0 0 0 0 0 0 255 150 0 0 0 0 0 0 0 0 0 0 255 160 0 0 0 0 0 0 0 0 0 0 255 170 0 0 0 0 0 0 0 0 0 0 255 255 10 0 0 0 0 0 0 0 0 0 0 0 0 255 255 40 0 0 0 0 0 0 0 0 0 
0 0 0 0 0 0 255 110 110 0 0 0 0 0 0 0 0 0 0 0 0 0 0 0 0 0 0 0 0 0 0 0 0 255 160 0 0 0 0 0 0 0 0 0 0 255 170 0 0 0 0 0 0 0 0 0 0 255 180 0 0 0 0 0 0 0 255 255 20 0 0 0 0 0 0 0 0 0 0 0 0 0 0 0 0 0 0 255 255 50 0 0 0 0 0 0 
0 0 0 0 0 0 255 110 110 0 0 0 0 0 0 0 0 0 0 0 0 0 0 0 0 0 0 0 0 0 0 0 0 255 160 0 0 0 0 0 0 0 0 0 0 255 170 0 0 0 0 0 0 0 0 0 0 255 180 0 0 0 0 0 0 0 255 255 30 0 0 0 0 0 0 0 0 0 0 0 0 0 0 0 0 0 0 0 0 0 0 0 0 0 0 0 
0 0 0 0 0 0 255 120 120 0 0 0 0 0 0 0 0 0 0 0 0 0 0 0 0 0 0 0 0 0 0 0 0 0 0 0 255 170 0 0 0 0 255 170 0 0 0 0 255 180 0 0 0 0 255 190 0 0 0 0 0 0 0 0 0 0 0 0 0 255 255 40 0 0 0 0 0 0 0 0 0 0 0 0 0 0 0 0 0 0 0 0 0 0 0 0 
0 0 0 0 0 0 255 120 120 0 0 0 0 0 0 0 0 0 0 0 0 0 0 0 0 0 0 0 0 0 0 0 0 0 0 0 255 170 0 0 0 0 255 170 0 0 0 0 255 180 0 0 0 0 255 190 0 0 0 0 0 0 0 0 0 0 0 0 0 0 0 0 255 255 50 255 255 60 0 0 0 0 0 0 0 0 0 0 0 0 0 0 0 0 0 0 
0 0 0 0 0 0 255 130 130 0 0 0 0 0 0 0 0 0 0 0 0 0 0 0 0 0 0 0 0 0 0 0 0 0 0 0 255 180 0 0 0 0 255 180 0 0 0 0 255 190 0 0 0 0 255 200 0 0 0 0 0 0 0 0 0 0 0 0 0 0 0 0 0 0 0 0 0 0 255 255 70 255 255 80 0 0 0 0 0 0 0 0 0 0 0 0 
0 0 0 0 0 0 255 130 130 0 0 0 0 0 0 0 0 0 0 0 0 0 0 0 0 0 0 0 0 0 0 0 0 0 0 0 255 180 0 0 0 0 255 180 0 0 0 0 255 190 0 0 0 0 255 200 0 0 0 0 0 0 0 0 0 0 0 0 0 0 0 0 0 0 0 0 0 0 0 0 0 0 0 0 255 255 90 0 0 0 0 0 0 0 0 0 
0 0 0 0 0 0 255 140 140 0 0 0 0 0 0 0 0 0 0 0 0 0 0 0 0 0 0 0 0 0 0 0 0 0 0 0 0 0 0 255 190 0 0 0 0 0 0 0 0 0 0 255 200 0 0 0 0 0 0 0 0 0 0 0 0 0 0 0 0 0 0 0 0 0 0 0 0 0 0 0 0 0 0 0 0 0 0 255 255 100 0 0 0 0 0 0 
0 0 0 0 0 0 255 140 140 0 0 0 0 0 0 0 0 0 0 0 0 0 0 0 0 0 0 0 0 0 0 0 0 0 0 0 0 0 0 255 190 0 0 0 0 0 0 0 0 0 0 255 200 0 0 0 0 0 0 0 0 0 0 0 0 0 255 255 60 0 0 0 0 0 0 0 0 0 0 0 0 0 0 0 0 0 0 255 255 100 0 0 0 0 0 0 
0 0 0 0 0 0 255 150 150 0 0 0 0 0 0 0 0 0 0 0 0 0 0 0 0 0 0 0 0 0 0 0 0 0 0 0 0 0 0 255 200 0 0 0 0 0 0 0 0 0 0 255 210 0 0 0 0 0 0 0 0 0 0 0 0 0 0 0 0 255 255 70 0 0 0 0 0 0 0 0 0 0 0 0 255 255 110 0 0 0 0 0 0 0 0 0 
0 0 0 0 0 0 255 150 150 255 160 160 255 160 160 255 170 170 255 170 170 255 180 180 255 180 180 255 190 190 0 0 0 0 0 0 0 0 0 255 200 0 0 0 0 0 0 0 0 0 0 255 210 0 0 0 0 0 0 0 0 0 0 0 0 0 0 0 0 0 0 0 255 255 80 255 255 90 255 255 100 255 255 110 0 0 0 0 0 0 0 0 0 0 0 0 
0 0 0 0 0 0 0 0 0 0 0 0 0 0 0 0 0 0 0 0 0 0 0 0 0 0 0 0 0 0 0 0 0 0 0 0 0 0 0 0 0 0 0 0 0 0 0 0 0 0 0 0 0 0 0 0 0 0 0 0 0 0 0 0 0 0 0 0 0 0 0 0 0 0 0 0 0 0 0 0 0 0 0 0 0 0 0 0 0 0 0 0 0 0 0 0 
0 0 0 0 0 0 0 0 0 0 0 0 0 0 0 0 0 0 0 0 0 0 0 0 0 0 0 0 0 0 0 0 0 0 0 0 0 0 0 0 0 0 0 0 0 0 0 0 0 0 0 0 0 0 0 0 0 0 0 0 0 0 0 0 0 0 0 0 0 0 0 0 0 0 0 0 0 0 0 0 0 0 0 0 0 0 0 0 0 0 0 0 0 0 0 0 